{
 "accessors": [
  {
   "componentType": 5126,
   "type": "VEC3",
   "count": 24,
   "max": [
    0.5,
    0.05000000074505806,
    0.5
   ],
   "min": [
    -0.5,
    -0.05000000074505806,
    -0.5
   ],
   "bufferView": 0
  },
  {
   "componentType": 5126,
   "type": "VEC3",
   "count": 24,
   "bufferView": 1
  },
  {
   "componentType": 5126,
   "type": "VEC2",
   "count": 24,
   "bufferView": 2
  },
  {
   "componentType": 5121,
   "type": "SCALAR",
   "count": 36,
   "bufferView": 3
  },
  {
   "componentType": 5126,
   "type": "VEC3",
   "count": 1404,
   "max": [
    6.342615127563477,
    15.610204696655273,
    7.1483612060546875
   ],
   "min": [
    -7.902709007263184,
    -0.017703000456094742,
    -7.1483612060546875
   ],
   "bufferView": 4
  },
  {
   "componentType": 5126,
   "type": "VEC3",
   "count": 1404,
   "bufferView": 5
  },
  {
   "componentType": 5126,
   "type": "VEC2",
   "count": 1404,
   "bufferView": 6
  },
  {
   "componentType": 5123,
   "type": "SCALAR",
   "count": 1404,
   "bufferView": 7
  },
  {
   "componentType": 5126,
   "type": "VEC3",
   "count": 636,
   "max": [
    7.648499011993408,
    15.195841789245605,
    6.877974987030029
   ],
   "min": [
    -1.7011480331420898,
    -0.017703000456094742,
    -6.877974987030029
   ],
   "bufferView": 8
  },
  {
   "componentType": 5126,
   "type": "VEC3",
   "count": 636,
   "bufferView": 9
  },
  {
   "componentType": 5126,
   "type": "VEC2",
   "count": 636,
   "bufferView": 10
  },
  {
   "componentType": 5123,
   "type": "SCALAR",
   "count": 636,
   "bufferView": 11
  },
  {
   "componentType": 5126,
   "type": "VEC3",
   "count": 240,
   "max": [
    3.5923221111297607,
    12.435407638549805,
    1.6210039854049683
   ],
   "min": [
    3.1456379890441895,
    11.802414894104004,
    -1.6210039854049683
   ],
   "bufferView": 12
  },
  {
   "componentType": 5126,
   "type": "VEC3",
   "count": 240,
   "bufferView": 13
  },
  {
   "componentType": 5126,
   "type": "VEC2",
   "count": 240,
   "bufferView": 14
  },
  {
   "componentType": 5121,
   "type": "SCALAR",
   "count": 240,
   "bufferView": 15
  }
 ],
 "asset": {
  "version": "2.0",
  "generator": "clara.io"
 },
 "bufferViews": [
  {
   "buffer": 0,
   "byteOffset": 0,
   "byteLength": 288,
   "target": 34962,
   "byteStride": 12
  },
  {
   "buffer": 0,
   "byteOffset": 288,
   "byteLength": 288,
   "target": 34962,
   "byteStride": 12
  },
  {
   "buffer": 0,
   "byteOffset": 576,
   "byteLength": 192,
   "target": 34962,
   "byteStride": 8
  },
  {
   "buffer": 0,
   "byteOffset": 768,
   "byteLength": 36,
   "target": 34963
  },
  {
   "buffer": 0,
   "byteOffset": 804,
   "byteLength": 16848,
   "target": 34962,
   "byteStride": 12
  },
  {
   "buffer": 0,
   "byteOffset": 17652,
   "byteLength": 16848,
   "target": 34962,
   "byteStride": 12
  },
  {
   "buffer": 0,
   "byteOffset": 34500,
   "byteLength": 11232,
   "target": 34962,
   "byteStride": 8
  },
  {
   "buffer": 0,
   "byteOffset": 45732,
   "byteLength": 2808,
   "target": 34963
  },
  {
   "buffer": 0,
   "byteOffset": 48540,
   "byteLength": 7632,
   "target": 34962,
   "byteStride": 12
  },
  {
   "buffer": 0,
   "byteOffset": 56172,
   "byteLength": 7632,
   "target": 34962,
   "byteStride": 12
  },
  {
   "buffer": 0,
   "byteOffset": 63804,
   "byteLength": 5088,
   "target": 34962,
   "byteStride": 8
  },
  {
   "buffer": 0,
   "byteOffset": 68892,
   "byteLength": 1272,
   "target": 34963
  },
  {
   "buffer": 0,
   "byteOffset": 70164,
   "byteLength": 2880,
   "target": 34962,
   "byteStride": 12
  },
  {
   "buffer": 0,
   "byteOffset": 73044,
   "byteLength": 2880,
   "target": 34962,
   "byteStride": 12
  },
  {
   "buffer": 0,
   "byteOffset": 75924,
   "byteLength": 1920,
   "target": 34962,
   "byteStride": 8
  },
  {
   "buffer": 0,
   "byteOffset": 77844,
   "byteLength": 240,
   "target": 34963
  }
 ],
 "buffers": [
  {
   "byteLength": 78084,
   "uri": "data:application/octet-stream;base64,"
  }
 ],
 "materials": [
  {
   "name": "795548",
   "pbrMetallicRoughness": {
    "baseColorFactor": [
     0.34901960784313724,
     0.7098039215686275,
     0.10980392156862745,
     1
    ],
    "roughnessFactor": 0.7448,
    "metallicFactor": 0
   },
   "doubleSided": true
  },
  {
   "name": "FFCC88",
   "pbrMetallicRoughness": {
    "baseColorFactor": [
     1,
     0.8,
     0.533333,
     1
    ],
    "roughnessFactor": 0.7448,
    "metallicFactor": 0
   },
   "doubleSided": true
  },
  {
   "name": "1A1A1A",
   "pbrMetallicRoughness": {
    "baseColorFactor": [
     0.101961,
     0.101961,
     0.101961,
     1
    ],
    "roughnessFactor": 0.7448,
    "metallicFactor": 0
   },
   "doubleSided": true
  },
  {
   "name": "Default-Box",
   "pbrMetallicRoughness": {
    "baseColorFactor": [
     0.24313725490196078,
     0.20784313725490197,
     0.1568627450980392,
     1
    ]
   }
  }
 ],
 "meshes": [
  {
   "primitives": [
    {
     "indices": 3,
     "material": 3,
     "mode": 4,
     "attributes": {
      "POSITION": 0,
      "NORMAL": 1,
      "TEXCOORD_0": 2
     }
    }
   ]
  },
  {
   "primitives": [
    {
     "indices": 7,
     "material": 0,
     "mode": 4,
     "attributes": {
      "POSITION": 4,
      "NORMAL": 5,
      "TEXCOORD_0": 6
     }
    }
   ]
  },
  {
   "primitives": [
    {
     "indices": 11,
     "material": 1,
     "mode": 4,
     "attributes": {
      "POSITION": 8,
      "NORMAL": 9,
      "TEXCOORD_0": 10
     }
    }
   ]
  },
  {
   "primitives": [
    {
     "indices": 15,
     "material": 2,
     "mode": 4,
     "attributes": {
      "POSITION": 12,
      "NORMAL": 13,
      "TEXCOORD_0": 14
     }
    }
   ]
  }
 ],
 "nodes": [
  {
   "name": "tileRoad",
   "translation": [
    0.49970000982284546,
    -0.023900000378489494,
    0.5
   ],
   "scale": [
    1,
    1.5362000465393066,
    1
   ],
   "children": [
    1
   ]
  },
  {
   "name": "tileRoad",
   "children": [
    5
   ]
  },
  {
   "name": "BigFoot1",
   "translation": [
    0.3935999870300293,
    0.047200001776218414,
    0.47189998626708984
   ],
   "scale": [
    0.07100000232458115,
    0.07100000232458115,
    0.07100000232458115
   ],
   "children": [
    3
   ]
  },
  {
   "name": "Monkey",
   "children": [
    4
   ]
  },
  {
   "name": "node-0",
   "children": [
    6,
    7,
    8
   ]
  },
  {
   "name": "Box",
   "translation": [
    0,
    0.05000000074505806,
    0
   ],
   "mesh": 0
  },
  {
   "name": "buffer-0-mesh-0",
   "mesh": 1
  },
  {
   "name": "buffer-0-mesh-0",
   "mesh": 2
  },
  {
   "name": "buffer-0-mesh-0",
   "mesh": 3
  }
 ],
 "scene": 0,
 "scenes": [
  {
   "nodes": [
    0,
    2
   ]
  }
 ]
}