{
 "accessors": [
  {
   "componentType": 5126,
   "type": "VEC3",
   "count": 24,
   "max": [
    0.5,
    0.05000000074505806,
    0.5
   ],
   "min": [
    -0.5,
    -0.05000000074505806,
    -0.5
   ],
   "bufferView": 0
  },
  {
   "componentType": 5126,
   "type": "VEC3",
   "count": 24,
   "bufferView": 1
  },
  {
   "componentType": 5126,
   "type": "VEC2",
   "count": 24,
   "bufferView": 2
  },
  {
   "componentType": 5121,
   "type": "SCALAR",
   "count": 36,
   "bufferView": 3
  },
  {
   "componentType": 5126,
   "type": "VEC3",
   "count": 144,
   "max": [
    -108.3676528930664,
    73.17279052734375,
    35.91371154785156
   ],
   "min": [
    -124.3509292602539,
    57.744041442871094,
    -35.91361618041992
   ],
   "bufferView": 4
  },
  {
   "componentType": 5126,
   "type": "VEC3",
   "count": 144,
   "bufferView": 5
  },
  {
   "componentType": 5126,
   "type": "VEC2",
   "count": 144,
   "bufferView": 6
  },
  {
   "componentType": 5121,
   "type": "SCALAR",
   "count": 144,
   "bufferView": 7
  },
  {
   "componentType": 5126,
   "type": "VEC3",
   "count": 288,
   "max": [
    110.25289154052734,
    74.03413391113281,
    36.1895637512207
   ],
   "min": [
    -118.195556640625,
    14.232004165649414,
    -36.18946838378906
   ],
   "bufferView": 8
  },
  {
   "componentType": 5126,
   "type": "VEC3",
   "count": 288,
   "bufferView": 9
  },
  {
   "componentType": 5126,
   "type": "VEC2",
   "count": 288,
   "bufferView": 10
  },
  {
   "componentType": 5123,
   "type": "SCALAR",
   "count": 288,
   "bufferView": 11
  },
  {
   "componentType": 5126,
   "type": "VEC3",
   "count": 972,
   "max": [
    70.06466674804688,
    191.67764282226562,
    71.37193298339844
   ],
   "min": [
    -155.54034423828125,
    -0.000007999999979801942,
    -58.97228240966797
   ],
   "bufferView": 12
  },
  {
   "componentType": 5126,
   "type": "VEC3",
   "count": 972,
   "bufferView": 13
  },
  {
   "componentType": 5126,
   "type": "VEC2",
   "count": 972,
   "bufferView": 14
  },
  {
   "componentType": 5123,
   "type": "SCALAR",
   "count": 972,
   "bufferView": 15
  },
  {
   "componentType": 5126,
   "type": "VEC3",
   "count": 270,
   "max": [
    -86.4339599609375,
    187.7194366455078,
    66.9154052734375
   ],
   "min": [
    -158.10308837890625,
    58.7938346862793,
    -41.166473388671875
   ],
   "bufferView": 16
  },
  {
   "componentType": 5126,
   "type": "VEC3",
   "count": 270,
   "bufferView": 17
  },
  {
   "componentType": 5126,
   "type": "VEC2",
   "count": 270,
   "bufferView": 18
  },
  {
   "componentType": 5123,
   "type": "SCALAR",
   "count": 270,
   "bufferView": 19
  }
 ],
 "asset": {
  "version": "2.0",
  "generator": "clara.io"
 },
 "bufferViews": [
  {
   "buffer": 0,
   "byteOffset": 0,
   "byteLength": 288,
   "target": 34962,
   "byteStride": 12
  },
  {
   "buffer": 0,
   "byteOffset": 288,
   "byteLength": 288,
   "target": 34962,
   "byteStride": 12
  },
  {
   "buffer": 0,
   "byteOffset": 576,
   "byteLength": 192,
   "target": 34962,
   "byteStride": 8
  },
  {
   "buffer": 0,
   "byteOffset": 768,
   "byteLength": 36,
   "target": 34963
  },
  {
   "buffer": 0,
   "byteOffset": 804,
   "byteLength": 1728,
   "target": 34962,
   "byteStride": 12
  },
  {
   "buffer": 0,
   "byteOffset": 2532,
   "byteLength": 1728,
   "target": 34962,
   "byteStride": 12
  },
  {
   "buffer": 0,
   "byteOffset": 4260,
   "byteLength": 1152,
   "target": 34962,
   "byteStride": 8
  },
  {
   "buffer": 0,
   "byteOffset": 5412,
   "byteLength": 144,
   "target": 34963
  },
  {
   "buffer": 0,
   "byteOffset": 5556,
   "byteLength": 3456,
   "target": 34962,
   "byteStride": 12
  },
  {
   "buffer": 0,
   "byteOffset": 9012,
   "byteLength": 3456,
   "target": 34962,
   "byteStride": 12
  },
  {
   "buffer": 0,
   "byteOffset": 12468,
   "byteLength": 2304,
   "target": 34962,
   "byteStride": 8
  },
  {
   "buffer": 0,
   "byteOffset": 14772,
   "byteLength": 576,
   "target": 34963
  },
  {
   "buffer": 0,
   "byteOffset": 15348,
   "byteLength": 11664,
   "target": 34962,
   "byteStride": 12
  },
  {
   "buffer": 0,
   "byteOffset": 27012,
   "byteLength": 11664,
   "target": 34962,
   "byteStride": 12
  },
  {
   "buffer": 0,
   "byteOffset": 38676,
   "byteLength": 7776,
   "target": 34962,
   "byteStride": 8
  },
  {
   "buffer": 0,
   "byteOffset": 46452,
   "byteLength": 1944,
   "target": 34963
  },
  {
   "buffer": 0,
   "byteOffset": 48396,
   "byteLength": 3240,
   "target": 34962,
   "byteStride": 12
  },
  {
   "buffer": 0,
   "byteOffset": 51636,
   "byteLength": 3240,
   "target": 34962,
   "byteStride": 12
  },
  {
   "buffer": 0,
   "byteOffset": 54876,
   "byteLength": 2160,
   "target": 34962,
   "byteStride": 8
  },
  {
   "buffer": 0,
   "byteOffset": 57036,
   "byteLength": 540,
   "target": 34963
  }
 ],
 "buffers": [
  {
   "byteLength": 57576,
   "uri": "data:application/octet-stream;base64,"
  }
 ],
 "materials": [
  {
   "name": "BA68C8",
   "pbrMetallicRoughness": {
    "baseColorFactor": [
     0.729412,
     0.407843,
     0.784314,
     1
    ],
    "roughnessFactor": 0.7493,
    "metallicFactor": 0
   },
   "doubleSided": true
  },
  {
   "name": "1A1A1A",
   "pbrMetallicRoughness": {
    "baseColorFactor": [
     0.101961,
     0.101961,
     0.101961,
     1
    ],
    "roughnessFactor": 0.7493,
    "metallicFactor": 0
   },
   "doubleSided": true
  },
  {
   "name": "795548",
   "pbrMetallicRoughness": {
    "baseColorFactor": [
     0.34901960784313724,
     0.7098039215686275,
     0.10980392156862745,
     1
    ],
    "roughnessFactor": 0.7493,
    "metallicFactor": 0
   },
   "doubleSided": true
  },
  {
   "name": "FFFFFF",
   "pbrMetallicRoughness": {
    "baseColorFactor": [
     0.94,
     0.94,
     0.94,
     1
    ],
    "roughnessFactor": 0.7493,
    "metallicFactor": 0
   },
   "doubleSided": true
  },
  {
   "name": "Default-Box",
   "pbrMetallicRoughness": {
    "baseColorFactor": [
     0.24313725490196078,
     0.20784313725490197,
     0.1568627450980392,
     1
    ],
    "roughnessFactor": 0.25,
    "metallicFactor": 0
   }
  }
 ],
 "meshes": [
  {
   "primitives": [
    {
     "indices": 3,
     "material": 4,
     "mode": 4,
     "attributes": {
      "POSITION": 0,
      "NORMAL": 1,
      "TEXCOORD_0": 2
     }
    }
   ]
  },
  {
   "primitives": [
    {
     "indices": 7,
     "material": 1,
     "mode": 4,
     "attributes": {
      "POSITION": 4,
      "NORMAL": 5,
      "TEXCOORD_0": 6
     }
    }
   ]
  },
  {
   "primitives": [
    {
     "indices": 11,
     "material": 3,
     "mode": 4,
     "attributes": {
      "POSITION": 8,
      "NORMAL": 9,
      "TEXCOORD_0": 10
     }
    }
   ]
  },
  {
   "primitives": [
    {
     "indices": 15,
     "material": 2,
     "mode": 4,
     "attributes": {
      "POSITION": 12,
      "NORMAL": 13,
      "TEXCOORD_0": 14
     }
    }
   ]
  },
  {
   "primitives": [
    {
     "indices": 19,
     "material": 0,
     "mode": 4,
     "attributes": {
      "POSITION": 16,
      "NORMAL": 17,
      "TEXCOORD_0": 18
     }
    }
   ]
  }
 ],
 "nodes": [
  {
   "name": "Bunny",
   "children": [
    1,
    3
   ]
  },
  {
   "name": "tileRoad",
   "translation": [
    0.5,
    -0.023900000378489494,
    0.5
   ],
   "scale": [
    1,
    1.5362000465393066,
    1
   ],
   "children": [
    2
   ]
  },
  {
   "name": "tileRoad",
   "children": [
    6
   ]
  },
  {
   "name": "Bunny1",
   "translation": [
    0.7157999873161316,
    0,
    0.4390999972820282
   ],
   "scale": [
    0.005200000014156103,
    0.005400000140070915,
    0.005200000014156103
   ],
   "children": [
    4
   ]
  },
  {
   "name": "Rabbit",
   "translation": [
    0,
    7.146200180053711,
    0
   ],
   "children": [
    5
   ]
  },
  {
   "name": "node-0",
   "children": [
    7,
    8,
    9,
    10
   ]
  },
  {
   "name": "Box",
   "translation": [
    0,
    0.05000000074505806,
    0
   ],
   "mesh": 0
  },
  {
   "name": "buffer-0-mesh-0",
   "mesh": 1
  },
  {
   "name": "buffer-0-mesh-0",
   "mesh": 2
  },
  {
   "name": "buffer-0-mesh-0",
   "mesh": 3
  },
  {
   "name": "buffer-0-mesh-0",
   "mesh": 4
  }
 ],
 "scene": 0,
 "scenes": [
  {
   "nodes": [
    0
   ]
  }
 ]
}