{
 "accessors": [
  {
   "componentType": 5126,
   "type": "VEC3",
   "count": 24,
   "max": [
    0.5,
    0.05000000074505806,
    0.5
   ],
   "min": [
    -0.5,
    -0.05000000074505806,
    -0.5
   ],
   "bufferView": 0
  },
  {
   "componentType": 5126,
   "type": "VEC3",
   "count": 24,
   "bufferView": 1
  },
  {
   "componentType": 5126,
   "type": "VEC2",
   "count": 24,
   "bufferView": 2
  },
  {
   "componentType": 5121,
   "type": "SCALAR",
   "count": 36,
   "bufferView": 3
  },
  {
   "componentType": 5126,
   "type": "VEC3",
   "count": 120,
   "max": [
    -170.31700134277344,
    118.58399963378906,
    87.42980194091797
   ],
   "min": [
    -193.63099670410156,
    107.86499786376953,
    36.46799850463867
   ],
   "bufferView": 4
  },
  {
   "componentType": 5126,
   "type": "VEC3",
   "count": 120,
   "bufferView": 5
  },
  {
   "componentType": 5126,
   "type": "VEC2",
   "count": 120,
   "bufferView": 6
  },
  {
   "componentType": 5121,
   "type": "SCALAR",
   "count": 120,
   "bufferView": 7
  },
  {
   "componentType": 5126,
   "type": "VEC3",
   "count": 108,
   "max": [
    270.07598876953125,
    61.279998779296875,
    68.99320220947266
   ],
   "min": [
    -140.61000061035156,
    -7.942259788513184,
    -100.19599914550781
   ],
   "bufferView": 8
  },
  {
   "componentType": 5126,
   "type": "VEC3",
   "count": 108,
   "bufferView": 9
  },
  {
   "componentType": 5126,
   "type": "VEC2",
   "count": 108,
   "bufferView": 10
  },
  {
   "componentType": 5121,
   "type": "SCALAR",
   "count": 108,
   "bufferView": 11
  },
  {
   "componentType": 5126,
   "type": "VEC3",
   "count": 234,
   "max": [
    305.968994140625,
    123.04000091552734,
    40.69779968261719
   ],
   "min": [
    -50.13019943237305,
    45.63679885864258,
    -146.98399353027344
   ],
   "bufferView": 12
  },
  {
   "componentType": 5126,
   "type": "VEC3",
   "count": 234,
   "bufferView": 13
  },
  {
   "componentType": 5126,
   "type": "VEC2",
   "count": 234,
   "bufferView": 14
  },
  {
   "componentType": 5121,
   "type": "SCALAR",
   "count": 234,
   "bufferView": 15
  },
  {
   "componentType": 5126,
   "type": "VEC3",
   "count": 1782,
   "max": [
    270.07598876953125,
    224.83399963378906,
    177.6929931640625
   ],
   "min": [
    -226.76300048828125,
    -7.365479946136475,
    -148.26100158691406
   ],
   "bufferView": 16
  },
  {
   "componentType": 5126,
   "type": "VEC3",
   "count": 1782,
   "bufferView": 17
  },
  {
   "componentType": 5126,
   "type": "VEC2",
   "count": 1782,
   "bufferView": 18
  },
  {
   "componentType": 5123,
   "type": "SCALAR",
   "count": 1782,
   "bufferView": 19
  }
 ],
 "asset": {
  "version": "2.0",
  "generator": "clara.io"
 },
 "bufferViews": [
  {
   "buffer": 0,
   "byteOffset": 0,
   "byteLength": 288,
   "target": 34962,
   "byteStride": 12
  },
  {
   "buffer": 0,
   "byteOffset": 288,
   "byteLength": 288,
   "target": 34962,
   "byteStride": 12
  },
  {
   "buffer": 0,
   "byteOffset": 576,
   "byteLength": 192,
   "target": 34962,
   "byteStride": 8
  },
  {
   "buffer": 0,
   "byteOffset": 768,
   "byteLength": 36,
   "target": 34963
  },
  {
   "buffer": 0,
   "byteOffset": 804,
   "byteLength": 1440,
   "target": 34962,
   "byteStride": 12
  },
  {
   "buffer": 0,
   "byteOffset": 2244,
   "byteLength": 1440,
   "target": 34962,
   "byteStride": 12
  },
  {
   "buffer": 0,
   "byteOffset": 3684,
   "byteLength": 960,
   "target": 34962,
   "byteStride": 8
  },
  {
   "buffer": 0,
   "byteOffset": 4644,
   "byteLength": 120,
   "target": 34963
  },
  {
   "buffer": 0,
   "byteOffset": 4764,
   "byteLength": 1296,
   "target": 34962,
   "byteStride": 12
  },
  {
   "buffer": 0,
   "byteOffset": 6060,
   "byteLength": 1296,
   "target": 34962,
   "byteStride": 12
  },
  {
   "buffer": 0,
   "byteOffset": 7356,
   "byteLength": 864,
   "target": 34962,
   "byteStride": 8
  },
  {
   "buffer": 0,
   "byteOffset": 8220,
   "byteLength": 108,
   "target": 34963
  },
  {
   "buffer": 0,
   "byteOffset": 8328,
   "byteLength": 2808,
   "target": 34962,
   "byteStride": 12
  },
  {
   "buffer": 0,
   "byteOffset": 11136,
   "byteLength": 2808,
   "target": 34962,
   "byteStride": 12
  },
  {
   "buffer": 0,
   "byteOffset": 13944,
   "byteLength": 1872,
   "target": 34962,
   "byteStride": 8
  },
  {
   "buffer": 0,
   "byteOffset": 15816,
   "byteLength": 234,
   "target": 34963
  },
  {
   "buffer": 0,
   "byteOffset": 16052,
   "byteLength": 21384,
   "target": 34962,
   "byteStride": 12
  },
  {
   "buffer": 0,
   "byteOffset": 37436,
   "byteLength": 21384,
   "target": 34962,
   "byteStride": 12
  },
  {
   "buffer": 0,
   "byteOffset": 58820,
   "byteLength": 14256,
   "target": 34962,
   "byteStride": 8
  },
  {
   "buffer": 0,
   "byteOffset": 73076,
   "byteLength": 3564,
   "target": 34963
  }
 ],
 "buffers": [
  {
   "byteLength": 76640,
   "uri": "data:application/octet-stream;base64,"
  }
 ],
 "materials": [
  {
   "name": "Default-Box",
   "pbrMetallicRoughness": {
    "baseColorFactor": [
     0.24313725490196078,
     0.20784313725490197,
     0.1568627450980392,
     1
    ],
    "roughnessFactor": 0.25,
    "metallicFactor": 0
   }
  },
  {
   "name": "Black",
   "pbrMetallicRoughness": {
    "baseColorFactor": [
     0.0747,
     0.08388,
     0.09,
     1
    ],
    "roughnessFactor": 0.9699,
    "metallicFactor": 0
   },
   "doubleSided": true
  },
  {
   "name": "SkyBlue",
   "pbrMetallicRoughness": {
    "baseColorFactor": [
     0.83,
     0.932,
     1,
     1
    ],
    "roughnessFactor": 0.9699,
    "metallicFactor": 0
   },
   "doubleSided": true
  },
  {
   "name": "Yellow",
   "pbrMetallicRoughness": {
    "baseColorFactor": [
     1,
     0.936667,
     0.62,
     1
    ],
    "roughnessFactor": 0.9699,
    "metallicFactor": 0
   },
   "doubleSided": true
  },
  {
   "name": "Green",
   "pbrMetallicRoughness": {
    "baseColorFactor": [
     0.35216,
     0.71,
     0.1136,
     1
    ],
    "roughnessFactor": 0.9699,
    "metallicFactor": 0
   },
   "doubleSided": true
  }
 ],
 "meshes": [
  {
   "primitives": [
    {
     "indices": 3,
     "material": 0,
     "mode": 4,
     "attributes": {
      "POSITION": 0,
      "NORMAL": 1,
      "TEXCOORD_0": 2
     }
    }
   ]
  },
  {
   "primitives": [
    {
     "indices": 7,
     "material": 1,
     "mode": 4,
     "attributes": {
      "POSITION": 4,
      "NORMAL": 5,
      "TEXCOORD_0": 6
     }
    }
   ]
  },
  {
   "primitives": [
    {
     "indices": 11,
     "material": 3,
     "mode": 4,
     "attributes": {
      "POSITION": 8,
      "NORMAL": 9,
      "TEXCOORD_0": 10
     }
    }
   ]
  },
  {
   "primitives": [
    {
     "indices": 15,
     "material": 2,
     "mode": 4,
     "attributes": {
      "POSITION": 12,
      "NORMAL": 13,
      "TEXCOORD_0": 14
     }
    }
   ]
  },
  {
   "primitives": [
    {
     "indices": 19,
     "material": 4,
     "mode": 4,
     "attributes": {
      "POSITION": 16,
      "NORMAL": 17,
      "TEXCOORD_0": 18
     }
    }
   ]
  }
 ],
 "nodes": [
  {
   "name": "Bunny",
   "children": [
    1
   ]
  },
  {
   "name": "Bunny",
   "children": [
    2
   ]
  },
  {
   "name": "tileRoad",
   "translation": [
    0.5,
    -0.023900000378489494,
    0.5
   ],
   "scale": [
    1,
    1.5362000465393066,
    1
   ],
   "children": [
    3
   ]
  },
  {
   "name": "tileRoad",
   "children": [
    6
   ]
  },
  {
   "name": "GrassHopper1",
   "translation": [
    0.4575999975204468,
    0.1404999941587448,
    0.4544999897480011
   ],
   "scale": [
    0.002199999988079071,
    0.002199999988079071,
    0.002199999988079071
   ],
   "children": [
    5
   ]
  },
  {
   "name": "node-0",
   "children": [
    7,
    8,
    9,
    10
   ]
  },
  {
   "name": "Box",
   "translation": [
    0,
    0.05000000074505806,
    0
   ],
   "mesh": 0
  },
  {
   "name": "buffer-0-mesh-0",
   "mesh": 1
  },
  {
   "name": "buffer-0-mesh-0",
   "mesh": 2
  },
  {
   "name": "buffer-0-mesh-0",
   "mesh": 3
  },
  {
   "name": "buffer-0-mesh-0",
   "mesh": 4
  }
 ],
 "scene": 0,
 "scenes": [
  {
   "nodes": [
    0,
    4
   ]
  }
 ]
}