{
 "accessors": [
  {
   "componentType": 5126,
   "type": "VEC3",
   "count": 24,
   "max": [
    0.5,
    0.05000000074505806,
    0.5
   ],
   "min": [
    -0.5,
    -0.05000000074505806,
    -0.5
   ],
   "bufferView": 0
  },
  {
   "componentType": 5126,
   "type": "VEC3",
   "count": 24,
   "bufferView": 1
  },
  {
   "componentType": 5126,
   "type": "VEC2",
   "count": 24,
   "bufferView": 2
  },
  {
   "componentType": 5121,
   "type": "SCALAR",
   "count": 36,
   "bufferView": 3
  },
  {
   "componentType": 5126,
   "type": "VEC3",
   "count": 2088,
   "max": [
    1.8043709993362427,
    2.8724780082702637,
    4.1417741775512695
   ],
   "min": [
    -1.804371953010559,
    -2.091007947921753,
    -2.707371950149536
   ],
   "bufferView": 4
  },
  {
   "componentType": 5126,
   "type": "VEC3",
   "count": 2088,
   "bufferView": 5
  },
  {
   "componentType": 5126,
   "type": "VEC2",
   "count": 2088,
   "bufferView": 6
  },
  {
   "componentType": 5123,
   "type": "SCALAR",
   "count": 2088,
   "bufferView": 7
  }
 ],
 "asset": {
  "version": "2.0",
  "generator": "clara.io"
 },
 "bufferViews": [
  {
   "buffer": 0,
   "byteOffset": 0,
   "byteLength": 288,
   "target": 34962,
   "byteStride": 12
  },
  {
   "buffer": 0,
   "byteOffset": 288,
   "byteLength": 288,
   "target": 34962,
   "byteStride": 12
  },
  {
   "buffer": 0,
   "byteOffset": 576,
   "byteLength": 192,
   "target": 34962,
   "byteStride": 8
  },
  {
   "buffer": 0,
   "byteOffset": 768,
   "byteLength": 36,
   "target": 34963
  },
  {
   "buffer": 0,
   "byteOffset": 804,
   "byteLength": 25056,
   "target": 34962,
   "byteStride": 12
  },
  {
   "buffer": 0,
   "byteOffset": 25860,
   "byteLength": 25056,
   "target": 34962,
   "byteStride": 12
  },
  {
   "buffer": 0,
   "byteOffset": 50916,
   "byteLength": 16704,
   "target": 34962,
   "byteStride": 8
  },
  {
   "buffer": 0,
   "byteOffset": 67620,
   "byteLength": 4176,
   "target": 34963
  }
 ],
 "buffers": [
  {
   "byteLength": 71796,
   "uri": "data:application/octet-stream;base64,"
  }
 ],
 "materials": [
  {
   "name": "Default-Box",
   "pbrMetallicRoughness": {
    "baseColorFactor": [
     0.24313725490196078,
     0.20784313725490197,
     0.1568627450980392,
     1
    ],
    "roughnessFactor": 0.25,
    "metallicFactor": 0
   }
  },
  {
   "name": "blinn1SG",
   "pbrMetallicRoughness": {
    "baseColorFactor": [
     0.41,
     0.5,
     0.61,
     1
    ],
    "roughnessFactor": 0.9699,
    "metallicFactor": 0
   },
   "doubleSided": true
  }
 ],
 "meshes": [
  {
   "primitives": [
    {
     "indices": 3,
     "material": 0,
     "mode": 4,
     "attributes": {
      "POSITION": 0,
      "NORMAL": 1,
      "TEXCOORD_0": 2
     }
    }
   ]
  },
  {
   "primitives": [
    {
     "indices": 7,
     "material": 1,
     "mode": 4,
     "attributes": {
      "POSITION": 4,
      "NORMAL": 5,
      "TEXCOORD_0": 6
     }
    }
   ]
  }
 ],
 "nodes": [
  {
   "name": "Pitchfork",
   "children": [
    1
   ]
  },
  {
   "name": "tileRoad",
   "translation": [
    0.5,
    0,
    0.5
   ],
   "scale": [
    1,
    1.5362000465393066,
    1
   ],
   "children": [
    2
   ]
  },
  {
   "name": "tileRoad",
   "children": [
    4
   ]
  },
  {
   "name": "Faucet",
   "translation": [
    0.4945000112056732,
    1.4746999740600586,
    0.5232999920845032
   ],
   "rotation": [
    -0.6993335136226666,
    0.010927224939268078,
    0.011063215171650286,
    0.7146263589990589
   ],
   "scale": [
    0.21470001058673915,
    0.29039999793391374,
    0.4870999983109628
   ],
   "children": [
    5
   ]
  },
  {
   "name": "Box",
   "translation": [
    0,
    0.05000000074505806,
    0
   ],
   "mesh": 0
  },
  {
   "name": "buffer-0-mesh-0",
   "mesh": 1
  }
 ],
 "scene": 0,
 "scenes": [
  {
   "nodes": [
    0,
    3
   ]
  }
 ]
}