{
 "accessors": [
  {
   "componentType": 5126,
   "type": "VEC3",
   "count": 24,
   "max": [
    0.5,
    0.05000000074505806,
    0.5
   ],
   "min": [
    -0.5,
    -0.05000000074505806,
    -0.5
   ],
   "bufferView": 0
  },
  {
   "componentType": 5126,
   "type": "VEC3",
   "count": 24,
   "bufferView": 1
  },
  {
   "componentType": 5126,
   "type": "VEC2",
   "count": 24,
   "bufferView": 2
  },
  {
   "componentType": 5121,
   "type": "SCALAR",
   "count": 36,
   "bufferView": 3
  },
  {
   "componentType": 5126,
   "type": "VEC3",
   "count": 2280,
   "max": [
    20.27703857421875,
    63.81160354614258,
    20.277034759521484
   ],
   "min": [
    -20.27703857421875,
    22.804899215698242,
    -20.277034759521484
   ],
   "bufferView": 4
  },
  {
   "componentType": 5126,
   "type": "VEC3",
   "count": 2280,
   "bufferView": 5
  },
  {
   "componentType": 5126,
   "type": "VEC2",
   "count": 2280,
   "bufferView": 6
  },
  {
   "componentType": 5123,
   "type": "SCALAR",
   "count": 2280,
   "bufferView": 7
  },
  {
   "componentType": 5126,
   "type": "VEC3",
   "count": 588,
   "max": [
    19.770797729492188,
    76.88408660888672,
    19.770801544189453
   ],
   "min": [
    -19.770797729492188,
    -0.6673799753189087,
    -19.770801544189453
   ],
   "bufferView": 8
  },
  {
   "componentType": 5126,
   "type": "VEC3",
   "count": 588,
   "bufferView": 9
  },
  {
   "componentType": 5126,
   "type": "VEC2",
   "count": 588,
   "bufferView": 10
  },
  {
   "componentType": 5123,
   "type": "SCALAR",
   "count": 588,
   "bufferView": 11
  },
  {
   "componentType": 5126,
   "type": "VEC3",
   "count": 240,
   "max": [
    19.770797729492188,
    76.88408660888672,
    19.770801544189453
   ],
   "min": [
    -19.770797729492188,
    14.572111129760742,
    -19.770801544189453
   ],
   "bufferView": 12
  },
  {
   "componentType": 5126,
   "type": "VEC3",
   "count": 240,
   "bufferView": 13
  },
  {
   "componentType": 5126,
   "type": "VEC2",
   "count": 240,
   "bufferView": 14
  },
  {
   "componentType": 5121,
   "type": "SCALAR",
   "count": 240,
   "bufferView": 15
  }
 ],
 "asset": {
  "version": "2.0",
  "generator": "clara.io"
 },
 "bufferViews": [
  {
   "buffer": 0,
   "byteOffset": 0,
   "byteLength": 288,
   "target": 34962,
   "byteStride": 12
  },
  {
   "buffer": 0,
   "byteOffset": 288,
   "byteLength": 288,
   "target": 34962,
   "byteStride": 12
  },
  {
   "buffer": 0,
   "byteOffset": 576,
   "byteLength": 192,
   "target": 34962,
   "byteStride": 8
  },
  {
   "buffer": 0,
   "byteOffset": 768,
   "byteLength": 36,
   "target": 34963
  },
  {
   "buffer": 0,
   "byteOffset": 804,
   "byteLength": 27360,
   "target": 34962,
   "byteStride": 12
  },
  {
   "buffer": 0,
   "byteOffset": 28164,
   "byteLength": 27360,
   "target": 34962,
   "byteStride": 12
  },
  {
   "buffer": 0,
   "byteOffset": 55524,
   "byteLength": 18240,
   "target": 34962,
   "byteStride": 8
  },
  {
   "buffer": 0,
   "byteOffset": 73764,
   "byteLength": 4560,
   "target": 34963
  },
  {
   "buffer": 0,
   "byteOffset": 78324,
   "byteLength": 7056,
   "target": 34962,
   "byteStride": 12
  },
  {
   "buffer": 0,
   "byteOffset": 85380,
   "byteLength": 7056,
   "target": 34962,
   "byteStride": 12
  },
  {
   "buffer": 0,
   "byteOffset": 92436,
   "byteLength": 4704,
   "target": 34962,
   "byteStride": 8
  },
  {
   "buffer": 0,
   "byteOffset": 97140,
   "byteLength": 1176,
   "target": 34963
  },
  {
   "buffer": 0,
   "byteOffset": 98316,
   "byteLength": 2880,
   "target": 34962,
   "byteStride": 12
  },
  {
   "buffer": 0,
   "byteOffset": 101196,
   "byteLength": 2880,
   "target": 34962,
   "byteStride": 12
  },
  {
   "buffer": 0,
   "byteOffset": 104076,
   "byteLength": 1920,
   "target": 34962,
   "byteStride": 8
  },
  {
   "buffer": 0,
   "byteOffset": 105996,
   "byteLength": 240,
   "target": 34963
  }
 ],
 "buffers": [
  {
   "byteLength": 106236,
   "uri": "data:application/octet-stream;base64,"
  }
 ],
 "materials": [
  {
   "name": "Default-Box",
   "pbrMetallicRoughness": {
    "baseColorFactor": [
     0.24313725490196078,
     0.20784313725490197,
     0.1568627450980392,
     1
    ],
    "roughnessFactor": 0.25,
    "metallicFactor": 0
   }
  },
  {
   "name": "lambert3SG",
   "pbrMetallicRoughness": {
    "baseColorFactor": [
     0.1,
     0.1,
     0.1,
     1
    ],
    "roughnessFactor": 0.9699,
    "metallicFactor": 0
   },
   "doubleSided": true
  },
  {
   "name": "lambert2SG",
   "pbrMetallicRoughness": {
    "baseColorFactor": [
     0.19,
     0.19,
     0.18,
     1
    ],
    "roughnessFactor": 0.9699,
    "metallicFactor": 0
   },
   "doubleSided": true
  },
  {
   "name": "lambert4SG",
   "pbrMetallicRoughness": {
    "baseColorFactor": [
     0.5,
     0.5,
     0.5,
     1
    ],
    "roughnessFactor": 0.9699,
    "metallicFactor": 0
   },
   "doubleSided": true
  }
 ],
 "meshes": [
  {
   "primitives": [
    {
     "indices": 3,
     "material": 0,
     "mode": 4,
     "attributes": {
      "POSITION": 0,
      "NORMAL": 1,
      "TEXCOORD_0": 2
     }
    }
   ]
  },
  {
   "primitives": [
    {
     "indices": 7,
     "material": 2,
     "mode": 4,
     "attributes": {
      "POSITION": 4,
      "NORMAL": 5,
      "TEXCOORD_0": 6
     }
    }
   ]
  },
  {
   "primitives": [
    {
     "indices": 11,
     "material": 1,
     "mode": 4,
     "attributes": {
      "POSITION": 8,
      "NORMAL": 9,
      "TEXCOORD_0": 10
     }
    }
   ]
  },
  {
   "primitives": [
    {
     "indices": 15,
     "material": 3,
     "mode": 4,
     "attributes": {
      "POSITION": 12,
      "NORMAL": 13,
      "TEXCOORD_0": 14
     }
    }
   ]
  }
 ],
 "nodes": [
  {
   "name": "Pitchfork",
   "children": [
    1
   ]
  },
  {
   "name": "tileRoad",
   "translation": [
    0.5,
    0,
    0.5
   ],
   "scale": [
    1,
    1.5362000465393066,
    1
   ],
   "children": [
    2
   ]
  },
  {
   "name": "tileRoad",
   "children": [
    5
   ]
  },
  {
   "name": "Silo",
   "translation": [
    0.5248000025749207,
    0,
    0.4968000054359436
   ],
   "scale": [
    0.012900000438094139,
    0.04500000178813934,
    0.012900000438094139
   ],
   "children": [
    4
   ]
  },
  {
   "name": "node-0",
   "children": [
    6,
    7,
    8
   ]
  },
  {
   "name": "Box",
   "translation": [
    0,
    0.05000000074505806,
    0
   ],
   "mesh": 0
  },
  {
   "name": "buffer-0-mesh-0",
   "mesh": 1
  },
  {
   "name": "buffer-0-mesh-0",
   "mesh": 2
  },
  {
   "name": "buffer-0-mesh-0",
   "mesh": 3
  }
 ],
 "scene": 0,
 "scenes": [
  {
   "nodes": [
    0,
    3
   ]
  }
 ]
}