{
 "accessors": [
  {
   "componentType": 5126,
   "type": "VEC3",
   "count": 24,
   "max": [
    0.5,
    0.05000000074505806,
    0.5
   ],
   "min": [
    -0.5,
    -0.05000000074505806,
    -0.5
   ],
   "bufferView": 0
  },
  {
   "componentType": 5126,
   "type": "VEC3",
   "count": 24,
   "bufferView": 1
  },
  {
   "componentType": 5126,
   "type": "VEC2",
   "count": 24,
   "bufferView": 2
  },
  {
   "componentType": 5121,
   "type": "SCALAR",
   "count": 36,
   "bufferView": 3
  },
  {
   "componentType": 5126,
   "type": "VEC3",
   "count": 4053,
   "max": [
    7.382033824920654,
    24.973281860351562,
    9.441123962402344
   ],
   "min": [
    -3.500861883163452,
    13.306991577148438,
    -3.9275128841400146
   ],
   "bufferView": 4
  },
  {
   "componentType": 5126,
   "type": "VEC3",
   "count": 4053,
   "bufferView": 5
  },
  {
   "componentType": 5126,
   "type": "VEC2",
   "count": 4053,
   "bufferView": 6
  },
  {
   "componentType": 5123,
   "type": "SCALAR",
   "count": 4053,
   "bufferView": 7
  },
  {
   "componentType": 5126,
   "type": "VEC3",
   "count": 4296,
   "max": [
    9.383861541748047,
    24.282072067260742,
    9.647712707519531
   ],
   "min": [
    -4.895381927490234,
    10.722984313964844,
    -6.447998046875
   ],
   "bufferView": 8
  },
  {
   "componentType": 5126,
   "type": "VEC3",
   "count": 4296,
   "bufferView": 9
  },
  {
   "componentType": 5126,
   "type": "VEC2",
   "count": 4296,
   "bufferView": 10
  },
  {
   "componentType": 5123,
   "type": "SCALAR",
   "count": 4296,
   "bufferView": 11
  },
  {
   "componentType": 5126,
   "type": "VEC3",
   "count": 1593,
   "max": [
    7.537403106689453,
    24.192602157592773,
    7.1865458488464355
   ],
   "min": [
    -2.911884069442749,
    13.283737182617188,
    -3.627686023712158
   ],
   "bufferView": 12
  },
  {
   "componentType": 5126,
   "type": "VEC3",
   "count": 1593,
   "bufferView": 13
  },
  {
   "componentType": 5126,
   "type": "VEC2",
   "count": 1593,
   "bufferView": 14
  },
  {
   "componentType": 5123,
   "type": "SCALAR",
   "count": 1593,
   "bufferView": 15
  },
  {
   "componentType": 5126,
   "type": "VEC3",
   "count": 120,
   "max": [
    6.702095031738281,
    22.90247917175293,
    5.142632007598877
   ],
   "min": [
    1.5286329984664917,
    19.82542610168457,
    -3.1462860107421875
   ],
   "bufferView": 16
  },
  {
   "componentType": 5126,
   "type": "VEC3",
   "count": 120,
   "bufferView": 17
  },
  {
   "componentType": 5126,
   "type": "VEC2",
   "count": 120,
   "bufferView": 18
  },
  {
   "componentType": 5121,
   "type": "SCALAR",
   "count": 120,
   "bufferView": 19
  },
  {
   "componentType": 5126,
   "type": "VEC3",
   "count": 528,
   "max": [
    3.0231359004974365,
    30.939409255981445,
    2.9167020320892334
   ],
   "min": [
    -2.8166160583496094,
    0,
    -2.470221996307373
   ],
   "bufferView": 20
  },
  {
   "componentType": 5126,
   "type": "VEC3",
   "count": 528,
   "bufferView": 21
  },
  {
   "componentType": 5126,
   "type": "VEC2",
   "count": 528,
   "bufferView": 22
  },
  {
   "componentType": 5123,
   "type": "SCALAR",
   "count": 528,
   "bufferView": 23
  }
 ],
 "asset": {
  "version": "2.0",
  "generator": "clara.io"
 },
 "bufferViews": [
  {
   "buffer": 0,
   "byteOffset": 0,
   "byteLength": 288,
   "target": 34962,
   "byteStride": 12
  },
  {
   "buffer": 0,
   "byteOffset": 288,
   "byteLength": 288,
   "target": 34962,
   "byteStride": 12
  },
  {
   "buffer": 0,
   "byteOffset": 576,
   "byteLength": 192,
   "target": 34962,
   "byteStride": 8
  },
  {
   "buffer": 0,
   "byteOffset": 768,
   "byteLength": 36,
   "target": 34963
  },
  {
   "buffer": 0,
   "byteOffset": 804,
   "byteLength": 48636,
   "target": 34962,
   "byteStride": 12
  },
  {
   "buffer": 0,
   "byteOffset": 49440,
   "byteLength": 48636,
   "target": 34962,
   "byteStride": 12
  },
  {
   "buffer": 0,
   "byteOffset": 98076,
   "byteLength": 32424,
   "target": 34962,
   "byteStride": 8
  },
  {
   "buffer": 0,
   "byteOffset": 130500,
   "byteLength": 8106,
   "target": 34963
  },
  {
   "buffer": 0,
   "byteOffset": 138608,
   "byteLength": 51552,
   "target": 34962,
   "byteStride": 12
  },
  {
   "buffer": 0,
   "byteOffset": 190160,
   "byteLength": 51552,
   "target": 34962,
   "byteStride": 12
  },
  {
   "buffer": 0,
   "byteOffset": 241712,
   "byteLength": 34368,
   "target": 34962,
   "byteStride": 8
  },
  {
   "buffer": 0,
   "byteOffset": 276080,
   "byteLength": 8592,
   "target": 34963
  },
  {
   "buffer": 0,
   "byteOffset": 284672,
   "byteLength": 19116,
   "target": 34962,
   "byteStride": 12
  },
  {
   "buffer": 0,
   "byteOffset": 303788,
   "byteLength": 19116,
   "target": 34962,
   "byteStride": 12
  },
  {
   "buffer": 0,
   "byteOffset": 322904,
   "byteLength": 12744,
   "target": 34962,
   "byteStride": 8
  },
  {
   "buffer": 0,
   "byteOffset": 335648,
   "byteLength": 3186,
   "target": 34963
  },
  {
   "buffer": 0,
   "byteOffset": 338836,
   "byteLength": 1440,
   "target": 34962,
   "byteStride": 12
  },
  {
   "buffer": 0,
   "byteOffset": 340276,
   "byteLength": 1440,
   "target": 34962,
   "byteStride": 12
  },
  {
   "buffer": 0,
   "byteOffset": 341716,
   "byteLength": 960,
   "target": 34962,
   "byteStride": 8
  },
  {
   "buffer": 0,
   "byteOffset": 342676,
   "byteLength": 120,
   "target": 34963
  },
  {
   "buffer": 0,
   "byteOffset": 342796,
   "byteLength": 6336,
   "target": 34962,
   "byteStride": 12
  },
  {
   "buffer": 0,
   "byteOffset": 349132,
   "byteLength": 6336,
   "target": 34962,
   "byteStride": 12
  },
  {
   "buffer": 0,
   "byteOffset": 355468,
   "byteLength": 4224,
   "target": 34962,
   "byteStride": 8
  },
  {
   "buffer": 0,
   "byteOffset": 359692,
   "byteLength": 1056,
   "target": 34963
  }
 ],
 "buffers": [
  {
   "byteLength": 360748,
   "uri": "data:application/octet-stream;base64,"
  }
 ],
 "materials": [
  {
   "name": "lambert5SG",
   "pbrMetallicRoughness": {
    "baseColorFactor": [
     0.33,
     0.2,
     0.15,
     1
    ],
    "roughnessFactor": 0.9699,
    "metallicFactor": 0
   },
   "doubleSided": true
  },
  {
   "name": "lambert3SG",
   "pbrMetallicRoughness": {
    "baseColorFactor": [
     0.37,
     0.19,
     0.12,
     1
    ],
    "roughnessFactor": 0.9699,
    "metallicFactor": 0
   },
   "doubleSided": true
  },
  {
   "name": "lambert4SG",
   "pbrMetallicRoughness": {
    "baseColorFactor": [
     0.22,
     0.13,
     0.1,
     1
    ],
    "roughnessFactor": 0.9699,
    "metallicFactor": 0
   },
   "doubleSided": true
  },
  {
   "name": "lambert6SG",
   "pbrMetallicRoughness": {
    "baseColorFactor": [
     0.02,
     0.01,
     0.01,
     1
    ],
    "roughnessFactor": 0.9699,
    "metallicFactor": 0
   },
   "doubleSided": true
  },
  {
   "name": "lambert2SG",
   "pbrMetallicRoughness": {
    "baseColorFactor": [
     0.15,
     0.09,
     0.07,
     1
    ],
    "roughnessFactor": 0.9699,
    "metallicFactor": 0
   },
   "doubleSided": true
  },
  {
   "name": "Default-Box",
   "pbrMetallicRoughness": {
    "baseColorFactor": [
     0.24313725490196078,
     0.20784313725490197,
     0.1568627450980392,
     1
    ]
   }
  }
 ],
 "meshes": [
  {
   "primitives": [
    {
     "indices": 3,
     "material": 5,
     "mode": 4,
     "attributes": {
      "POSITION": 0,
      "NORMAL": 1,
      "TEXCOORD_0": 2
     }
    }
   ]
  },
  {
   "primitives": [
    {
     "indices": 7,
     "material": 2,
     "mode": 4,
     "attributes": {
      "POSITION": 4,
      "NORMAL": 5,
      "TEXCOORD_0": 6
     }
    }
   ]
  },
  {
   "primitives": [
    {
     "indices": 11,
     "material": 0,
     "mode": 4,
     "attributes": {
      "POSITION": 8,
      "NORMAL": 9,
      "TEXCOORD_0": 10
     }
    }
   ]
  },
  {
   "primitives": [
    {
     "indices": 15,
     "material": 1,
     "mode": 4,
     "attributes": {
      "POSITION": 12,
      "NORMAL": 13,
      "TEXCOORD_0": 14
     }
    }
   ]
  },
  {
   "primitives": [
    {
     "indices": 19,
     "material": 3,
     "mode": 4,
     "attributes": {
      "POSITION": 16,
      "NORMAL": 17,
      "TEXCOORD_0": 18
     }
    }
   ]
  },
  {
   "primitives": [
    {
     "indices": 23,
     "material": 4,
     "mode": 4,
     "attributes": {
      "POSITION": 20,
      "NORMAL": 21,
      "TEXCOORD_0": 22
     }
    }
   ]
  }
 ],
 "nodes": [
  {
   "name": "tileRoad",
   "translation": [
    0.5,
    0,
    0.5
   ],
   "scale": [
    1,
    1.5362000465393066,
    1
   ],
   "children": [
    1
   ]
  },
  {
   "name": "tileRoad",
   "children": [
    5
   ]
  },
  {
   "name": "TreeHouse",
   "children": [
    3
   ]
  },
  {
   "name": "Tree House",
   "children": [
    4
   ]
  },
  {
   "name": "node-0",
   "translation": [
    0.5116000175476074,
    0,
    0.4948999881744385
   ],
   "children": [
    6,
    7,
    8,
    9,
    10
   ]
  },
  {
   "name": "Box",
   "translation": [
    0,
    0.05000000074505806,
    0
   ],
   "mesh": 0
  },
  {
   "name": "buffer-0-mesh-0",
   "scale": [
    0.14429999887943268,
    0.13289999961853027,
    0.1665000021457672
   ],
   "mesh": 1
  },
  {
   "name": "buffer-0-mesh-0",
   "scale": [
    0.14429999887943268,
    0.13289999961853027,
    0.1665000021457672
   ],
   "mesh": 2
  },
  {
   "name": "buffer-0-mesh-0",
   "scale": [
    0.14429999887943268,
    0.13289999961853027,
    0.1665000021457672
   ],
   "mesh": 3
  },
  {
   "name": "buffer-0-mesh-0",
   "scale": [
    0.14429999887943268,
    0.13289999961853027,
    0.1665000021457672
   ],
   "mesh": 4
  },
  {
   "name": "buffer-0-mesh-0",
   "scale": [
    0.14429999887943268,
    0.13289999961853027,
    0.1665000021457672
   ],
   "mesh": 5
  }
 ],
 "scene": 0,
 "scenes": [
  {
   "nodes": [
    0,
    2
   ]
  }
 ]
}