{
 "accessors": [
  {
   "componentType": 5126,
   "type": "VEC3",
   "count": 24,
   "max": [
    0.5,
    0.05000000074505806,
    0.5
   ],
   "min": [
    -0.5,
    -0.05000000074505806,
    -0.5
   ],
   "bufferView": 0
  },
  {
   "componentType": 5126,
   "type": "VEC3",
   "count": 24,
   "bufferView": 1
  },
  {
   "componentType": 5126,
   "type": "VEC2",
   "count": 24,
   "bufferView": 2
  },
  {
   "componentType": 5121,
   "type": "SCALAR",
   "count": 36,
   "bufferView": 3
  },
  {
   "componentType": 5126,
   "type": "VEC3",
   "count": 3858,
   "max": [
    180.2838592529297,
    217.09161376953125,
    37.047183990478516
   ],
   "min": [
    -128.96890258789062,
    0,
    -40.096954345703125
   ],
   "bufferView": 4
  },
  {
   "componentType": 5126,
   "type": "VEC3",
   "count": 3858,
   "bufferView": 5
  },
  {
   "componentType": 5126,
   "type": "VEC2",
   "count": 3858,
   "bufferView": 6
  },
  {
   "componentType": 5123,
   "type": "SCALAR",
   "count": 3858,
   "bufferView": 7
  }
 ],
 "asset": {
  "version": "2.0",
  "generator": "clara.io"
 },
 "bufferViews": [
  {
   "buffer": 0,
   "byteOffset": 0,
   "byteLength": 288,
   "target": 34962,
   "byteStride": 12
  },
  {
   "buffer": 0,
   "byteOffset": 288,
   "byteLength": 288,
   "target": 34962,
   "byteStride": 12
  },
  {
   "buffer": 0,
   "byteOffset": 576,
   "byteLength": 192,
   "target": 34962,
   "byteStride": 8
  },
  {
   "buffer": 0,
   "byteOffset": 768,
   "byteLength": 36,
   "target": 34963
  },
  {
   "buffer": 0,
   "byteOffset": 804,
   "byteLength": 46296,
   "target": 34962,
   "byteStride": 12
  },
  {
   "buffer": 0,
   "byteOffset": 47100,
   "byteLength": 46296,
   "target": 34962,
   "byteStride": 12
  },
  {
   "buffer": 0,
   "byteOffset": 93396,
   "byteLength": 30864,
   "target": 34962,
   "byteStride": 8
  },
  {
   "buffer": 0,
   "byteOffset": 124260,
   "byteLength": 7716,
   "target": 34963
  }
 ],
 "buffers": [
  {
   "byteLength": 131976,
   "uri": "data:application/octet-stream;base64,"
  }
 ],
 "materials": [
  {
   "name": "Mat.9",
   "pbrMetallicRoughness": {
    "baseColorFactor": [
     0.34901960784313724,
     0.7098039215686275,
     0.10980392156862745,
     1
    ],
    "roughnessFactor": 0.8582,
    "metallicFactor": 0
   },
   "doubleSided": true
  },
  {
   "name": "Default-Box",
   "pbrMetallicRoughness": {
    "baseColorFactor": [
     0.6901960784313725,
     0.6901960784313725,
     0.6901960784313725,
     1
    ]
   }
  }
 ],
 "meshes": [
  {
   "primitives": [
    {
     "indices": 3,
     "material": 1,
     "mode": 4,
     "attributes": {
      "POSITION": 0,
      "NORMAL": 1,
      "TEXCOORD_0": 2
     }
    }
   ]
  },
  {
   "primitives": [
    {
     "indices": 7,
     "material": 0,
     "mode": 4,
     "attributes": {
      "POSITION": 4,
      "NORMAL": 5,
      "TEXCOORD_0": 6
     }
    }
   ]
  }
 ],
 "nodes": [
  {
   "name": "Bunny",
   "children": [
    1
   ]
  },
  {
   "name": "Bunny",
   "children": [
    2
   ]
  },
  {
   "name": "tileRoad",
   "translation": [
    0.5,
    -0.023900000378489494,
    0.5
   ],
   "scale": [
    1,
    1.5362000465393066,
    1
   ],
   "children": [
    3
   ]
  },
  {
   "name": "tileRoad",
   "children": [
    6
   ]
  },
  {
   "name": "Wolf1",
   "translation": [
    0.36320000886917114,
    0.09269999712705612,
    0.48100000619888306
   ],
   "scale": [
    0.006300000008195639,
    0.006300000008195639,
    0.006300000008195639
   ],
   "children": [
    5
   ]
  },
  {
   "name": "Wolf",
   "children": [
    7
   ]
  },
  {
   "name": "Box",
   "translation": [
    0,
    0.05000000074505806,
    0
   ],
   "mesh": 0
  },
  {
   "name": "buffer-0-mesh-0",
   "mesh": 1
  }
 ],
 "scene": 0,
 "scenes": [
  {
   "nodes": [
    0,
    4
   ]
  }
 ]
}